<?xml version="1.0" encoding="UTF-8"?>
<!DOCTYPE svg PUBLIC "-//W3C//DTD SVG 1.1//EN" "http://www.w3.org/Graphics/SVG/1.1/DTD/svg11.dtd">
<!-- Creator: CorelDRAW -->
<svg xmlns="http://www.w3.org/2000/svg" xml:space="preserve" width="66.7867mm" height="72.4044mm" version="1.1" style="shape-rendering:geometricPrecision; text-rendering:geometricPrecision; image-rendering:optimizeQuality; fill-rule:evenodd; clip-rule:evenodd"
viewBox="0 0 6664.43 7225"
 xmlns:xlink="http://www.w3.org/1999/xlink"
 xmlns:xodm="http://www.corel.com/coreldraw/odm/2003">
 <defs>
  <style type="text/css">
   <![CDATA[
    .fil0 {fill:white}
   ]]>
  </style>
 </defs>
 <g id="Camada_x0020_1">
  <metadata id="CorelCorpID_0Corel-Layer"/>
  <path class="fil0" d="M3151.91 3391.84c8.91,-40.24 35.42,-89.58 52.88,-128.76 32.08,-72.07 39.14,-106.7 65.27,-105.96 -8.96,40.8 -83.85,228.17 -108.55,246.48 -5.13,48.89 -149.74,346.51 -181.3,408.77 -33.48,66.05 -63.07,136.12 -95.98,202.8l-312.97 584.38c-32.02,56.48 -205.2,354.03 -213.39,389.8 32.39,-12.26 278.45,-255.14 337.7,-311.69 38.79,-37.02 79.59,-68.73 117.44,-105.02l378.91 -380.07c17.72,-19.21 113.15,-89.32 169.68,-159.69l731.1 -794.77c128.79,-163.05 259.65,-315.54 384.3,-482.66 281.61,-377.54 636.43,-936.72 808.28,-1376.5 35.79,-91.57 97.62,-227.93 118.61,-320.2 -56.82,0.2 -118.16,11.28 -174.49,19.68 -74.31,11.08 -304.29,15.53 -377.09,6.61l-117.27 -19.98c-38.99,-6.66 -21.71,5.58 -44.37,-14.6 199.65,-35.26 165.56,-34.34 338.04,-96.53 -9.63,-84 -282.71,-449.46 -346.67,-527.43 -136.01,-165.81 -172.66,-192.38 -316.94,-335.01 -149.28,-147.57 -108.51,-119.89 -152.97,107.21 -68.44,349.54 -143.83,658.95 -232.39,1001.83 -50.54,195.66 -164.76,569.19 -232.51,756.27 -96.26,265.78 -221.23,638.9 -340.28,894.1 -25.47,54.59 -48.36,127.33 -75.93,177.47 -75.41,-141.32 -357.6,-906.16 -407.18,-1058.54 -85.22,-261.87 -155.96,-490.93 -228.44,-759.9 -35.24,-130.76 -66.21,-259.38 -99.68,-391.2 -17.64,-69.49 -27.6,-135.23 -43.22,-203.07 -32.18,-139.76 -63.92,-258.61 -86.49,-404.18 -4.75,-30.63 -35.43,-192.46 -43.7,-209.81 -25.74,-7.44 -91.97,65.17 -115.12,86.01l-212.76 224.09c-33.57,40.5 -67.09,80.46 -101.52,120.56 -54.61,63.59 -335.93,457.14 -363.73,522.77 48.65,12.64 106.86,41.11 159.87,56.89 61.75,18.37 121.48,24.59 181.92,40.6 -23.41,15.15 -298.04,33.86 -346.4,34.02 -110.64,0.38 -240.08,-16.14 -353.55,-34.22 11.88,130.79 244.91,637.35 316.53,774.23 91.87,175.56 295.64,524.82 411.49,676.94 78.8,103.48 155.47,207.34 233.11,311.39 73.34,98.3 164.96,205.42 246.15,298.03 77.31,88.2 467.84,531.67 534.04,562.62l139.59 -283.76z"/>
  <path class="fil0" d="M3114.03 355.61c173.19,193.9 125.37,13.04 85.37,379.93 -7.83,71.87 -24.17,188.71 -40.34,257.3l-141.21 903.39c-16.7,138.74 -41.01,56.02 162.94,261.47 203.17,204.65 120.29,159.35 322.45,-8.1 34.99,-28.98 84.01,-92.5 160.31,-152.41 4.17,-50.59 -38.48,-331.11 -53.62,-384.1 -13.03,-45.65 -18.34,-137.63 -26,-190 -8.93,-61 -25.21,-124.01 -33.78,-186.3 -8.54,-62.12 -14.23,-128.29 -25.85,-189.48l-88.39 -574.8 123.26 -115.25c-2.81,-30.8 -78.59,-201.28 -97.08,-228.66l-251.32 -4.18c-17.27,34.61 -93.67,203.26 -96.72,231.21z"/>
  <path class="fil0" d="M1373.21 5262.72c42.27,-103.31 236.35,-134.33 333.86,-113.05 291.99,63.75 328.65,360.07 332.3,611.43 1.17,80.16 -20.74,348.59 -92.81,386.82 -16.19,-12.7 -557.45,-842.19 -573.34,-885.21zm-184.09 8.43c74.05,156.12 597.37,880.13 632.04,1003.67 -78.37,84.13 -580.14,179.28 -587.92,-552.69l-322.51 -4.34c-38.91,3.73 -21.6,-0.54 -32.58,20.32 16.91,24.65 17.42,11.23 54.3,17.76 119.35,21.13 62.81,149.81 164.95,333.09 60.05,107.76 184.27,232.96 302.74,272.46 59.1,19.7 202.11,12.41 270.39,12.26 97.06,-0.22 158.57,10.89 245.32,-37.69 441.08,-247.02 447.76,-848.37 105.47,-1132.77 -183.66,-152.6 -462.26,-171.49 -671.29,-61.82 -41.46,21.76 -144.6,90.1 -160.92,129.75z"/>
  <path class="fil0" d="M696.78 5138.12c-112.51,18.56 -216.48,-92.92 -396.26,-56.26 -120.05,24.49 -215.58,83.78 -270.99,196.3 -55.32,112.31 -30.42,253.1 54.02,344.66 78.47,85.09 178.25,131.71 275.27,192.67 97.44,61.22 194.74,93.7 273.07,187.04 88.39,105.33 43.47,240.2 -69.58,299.13 -159.13,82.95 -403,-7.56 -468.92,-175 -41.29,-104.9 -14.76,-168.39 -75.83,-155.94 -9.53,54.8 -14.02,404.63 4.54,435.74 43.62,14.86 28.29,-32.16 63.69,-67.68 75.09,-33.78 441.55,233.74 702.73,-95.02 79.44,-100.01 71.67,-249.91 13.01,-357.25 -49.29,-90.21 -170.1,-159.44 -259.76,-208.18 -130.33,-70.84 -375.44,-180.71 -383.97,-315.64 -4.16,-65.86 24.73,-130.54 75.85,-164 111.52,-72.98 249.41,-46.71 352.46,28.97 52.52,38.57 74.94,77.57 101.33,136.62 22.71,50.8 28.4,189.03 71.45,152.74 16.96,-14.3 13.98,-413.35 0.67,-440.38 -41.27,-9.05 -38.61,29.17 -62.78,61.45z"/>
  <path class="fil0" d="M3567.16 6042.66c-41.08,-18.82 -46.41,18.26 -118.59,101.2 -122.86,141.18 -324.56,184.81 -501.54,119.54 -249.45,-91.97 -318.91,-355.02 -298.75,-599.53 20.17,-244.6 92.72,-487.23 364.95,-538.57 121.4,-22.89 252.74,7.4 344.72,90.54 61.05,55.17 104.98,134.91 132.9,212.23 12.53,34.7 9.54,59.55 46.45,52.86 10.7,-31.53 -16.44,-385.5 -27.15,-431.94 -51.1,1 -47.48,44.72 -82.9,82.3 -64.02,4.77 -122.52,-36.89 -188.12,-56.99 -89.19,-27.31 -125.93,-26.65 -219.47,-24.24 -103.41,2.68 -274.8,64.99 -348.52,139.95 -20.34,20.69 -52.3,42.45 -65.23,57.24 -62.3,71.26 -101.52,147.55 -131.37,236.66 -147.35,439.93 106.08,867.4 476.47,888.65 146.03,8.37 270.35,8.07 398.05,-75.18 57.23,-37.32 222.83,-186.6 218.09,-254.74z"/>
  <path class="fil0" d="M4440.23 5746c33.18,16.48 45.29,-4.38 80.66,24.04 11.08,84.44 -79.51,251.05 -114.36,334.56 -104.56,250.58 -128.12,191.12 -211.22,233.43 -4.08,51.44 25.78,35.9 74.43,35.38 81.39,-0.88 272.78,5.07 327.4,-2.01l0.63 -27.14c-37.61,-34.68 -131.96,0.06 -143.15,-77.76 -7.18,-50.01 32.35,-123.85 50.37,-170.58 20.59,-53.41 43.33,-102.99 67.49,-154.75 20.45,-43.81 34.88,-127.7 75.09,-150.38 25.11,-11.54 289.85,-8.86 331.64,-3.08 12.35,5.9 199.06,410.08 185.89,485.66 -14.84,85.05 -132.59,17.5 -119.52,99.1 33.91,3.33 480.31,9.57 496.11,-7.54 27.52,-41.82 -37.22,-33.47 -67.03,-44.92 -26.49,-10.18 -54.28,-32.4 -71.31,-52 -87.33,-100.54 -464.43,-1133.64 -521.88,-1195.31l-31.72 2.84c-18.6,19.83 -64.85,139.88 -79.33,174.26 -29.17,69.22 -28.12,116.95 16.7,178.78l26.43 -40.68c15.19,15.42 143.01,296.43 133.93,330.19 -98.76,12.47 -360.83,-4.64 -471.38,-0.67 -37.45,1.35 -33.7,-0.15 -35.87,28.58z"/>
  <path class="fil0" d="M5975.85 6278.51c-50.07,-62.8 -31.3,-241.07 -31.33,-325.72 -0.03,-117.57 0.02,-235.14 0.14,-352.7 0.2,-185.03 -42.23,-410.69 89.28,-445.25 108.25,-28.44 127.08,9.63 126.73,-41.07 -29.34,-12.83 -561.32,-14.76 -587.72,2.91 8.55,40.75 32.38,19.48 75.37,25.76 111.67,16.32 106.11,93.99 107.62,189.28l0.07 797.41c-0.64,49.68 7.82,133.76 -25.71,172.73 -45.82,53.24 -113.37,19.97 -152.16,48.98 -7.54,43.88 52.97,30.34 87.08,30.23 251.39,-0.76 686.06,11.2 889.42,0.68 18.37,-21.48 120.94,-322.32 108.8,-359.94 -67.02,10.79 -51.43,184.84 -232.28,252.6 -70.25,26.32 -381.12,24.29 -455.3,4.11z"/>
  <path class="fil0" d="M4146.11 6343.81c-42.91,-15.85 -107.83,6.49 -152.19,-46.37 -26.44,-31.52 -18.88,-140.36 -19.24,-183.64 -1.83,-220.86 -5.79,-570.63 0.78,-782.07 1.64,-52.64 -6.67,-130.46 38.94,-163.57 75.49,-54.8 126.98,3.35 140.69,-51.12 -33.31,-25.93 -220.11,-9.53 -276.36,-9.79 -55.17,-0.25 -233.43,-7.08 -273.92,3.47 -0.54,65.25 57.06,0.66 140.78,62.5 50.47,37.28 40.92,99.86 41.43,158.51l0 797.4c-0.46,272.68 -91.72,177.3 -181.45,218.1 -3.36,31.34 -4.19,11.43 4.19,28.66 26.49,10.63 513.03,10.51 538.82,0.16 8.45,-22.65 7.86,-14.72 -2.45,-32.24z"/>
  <path class="fil0" d="M2784.89 6940.94c-11.09,-51.04 -17.02,-189.99 19.5,-228.39 78.71,-6.22 133.52,55.88 121.08,135.15 -10.37,66.05 -81.68,115.96 -140.58,93.24zm192.98 -240.86c-67.11,-35.62 -347.07,-27.63 -371.4,-18.9 -4.17,45.08 18.02,19.82 58.84,47.97 7.08,53.91 9,379.18 -1.46,423.96 -39.14,28.65 -58.98,2.2 -65.57,50.83 38.5,10.48 221.81,9.67 263.06,1.6 -16.15,-63.37 -58.65,-1.44 -77.05,-81.58 -7.46,-32.53 -10.01,-109.72 5.66,-136.74 56.27,-25.09 104.27,108.73 133.33,150.87 47.15,68.34 142.31,92.87 198.41,80.88 0.99,-46.05 -13.94,-37.84 -47.52,-70.6 -41.41,-40.4 -119.46,-149.59 -123.55,-201.42 140.04,-70.12 103.33,-206.5 27.24,-246.87z"/>
  <path class="fil0" d="M4660.66 6709.2c219.06,-81.78 293.2,407.6 100.69,463.45 -231.64,67.21 -301.83,-388.37 -100.69,-463.45zm338.48 240.34c39.95,-347.86 -572.55,-396.24 -584.56,-15.61 -8.9,281.62 335.13,367.06 497.77,213.61 65.84,-62.13 76.61,-109.37 86.79,-198.01z"/>
  <path class="fil0" d="M3974.64 7221.89c13.7,-40.41 4.97,-251.22 5.33,-310.69 1.87,-306.3 71.83,-145.69 78.53,-224.3 -25.31,-15.18 -189.28,-16.28 -212.24,1.95 16.54,62.06 86.59,-32.46 89.5,122.34 1.12,59.4 5.33,146.86 0.09,203.65 -42.16,-2.88 -283.71,-307.19 -309.93,-326.39 -24.89,-18.21 -61.94,-11.52 -92.22,-11.44 -37.19,0.09 -67.97,-11.77 -82.14,19.34 38,34.73 81.58,10.42 88.08,84.79l-1.46 334.72c-11.36,79.33 -72.79,33.47 -78.52,84.55 30.64,17.63 185.13,15.91 217.41,0.06 -8.95,-42.65 -41.09,-15.24 -78.15,-54.81 -18.56,-69.55 -18.01,-253.33 -13.82,-330 35.25,17.65 149.89,175.75 189.82,214.89 41.98,41.14 144.64,195.59 199.72,191.34z"/>
  <path class="fil0" d="M2201.31 6803.85c10.38,-40.92 4.28,-95.29 -18.85,-126.86 -69.42,-2.17 -143.04,-0.85 -212.91,-0.29 -92.55,0.75 -171.59,-15.71 -172.34,23.8 32.97,27.3 40.33,-5.34 67.6,39.78 9.19,53.05 9.81,371.36 -6.08,414.21 -31.2,18.8 -62.22,12.98 -78.78,40.44 28.27,28.62 413.86,16.35 435.7,7.88 15.88,-41.56 24.35,-94.04 23.96,-139.41 -58,4.47 -39.37,64.59 -87.6,91.61 -27.56,15.44 -126.38,15.12 -150.65,2.26 -37.2,-28.75 -24.37,-146.1 -23.08,-196.43l121.09 5.29c32.53,31.38 12.41,55.73 60.78,48.64l-1.53 -162.7c-63.04,-3.7 -17.07,92.88 -175.33,61.56 -4.22,-11.05 -21.53,-178.8 14.35,-197.14 29.83,-7.4 103.89,-4.61 129.81,13.77 49.39,35.03 11.07,74.37 73.85,73.58z"/>
  <path class="fil0" d="M5392.53 7044.82c-11.01,41.39 -3.12,139.64 42.75,157.6 46.52,18.22 118.97,30.93 168.71,15.99 108.45,-32.58 185.99,-126.28 124.26,-240.03 -42.93,-79.12 -214.11,-108.01 -224.83,-182.18 -10.07,-69.63 45.82,-113.76 111.64,-87.67 47.86,18.97 56,95.17 96.15,104.58 24.81,-36.39 21.23,-129.83 -52.93,-141.85 -260.99,-42.31 -325.06,176.34 -189.54,275.71 41.91,30.72 86.22,45.81 128.72,77.79 113.62,85.49 -1.94,222.91 -115.33,123.25 -54.07,-47.54 -37.45,-112.94 -89.62,-103.19z"/>
  <path class="fil0" d="M933.91 6821.64c67.14,6.73 -7.18,-120.49 183.38,-108.61l-0.92 426.2c-16.58,58.41 -71.13,5.01 -74.16,63.32 24.61,13.18 245.32,12.06 273.61,-0.97 -7.51,-55.79 -60.6,-1.76 -79.58,-62.93 -7.34,-23.66 -7.08,-396.47 1.71,-422.23 30.85,-10.83 94.18,-0.99 119.31,25.06 35.7,37 20.05,82.68 64.12,81.44 11.15,-41.07 7.81,-127.5 -11.54,-164.3 -35.75,0.65 -49.12,19.95 -114.97,19.49l-261.05 -0.43c-53.32,-0.49 -68.93,-25.74 -102.33,-15.27 -3.44,39.72 -13.19,128.15 2.43,159.22z"/>
 </g>
</svg>
