<?xml version="1.0" encoding="UTF-8"?>
<!DOCTYPE svg PUBLIC "-//W3C//DTD SVG 1.1//EN" "http://www.w3.org/Graphics/SVG/1.1/DTD/svg11.dtd">
<!-- Creator: CorelDRAW -->
<svg xmlns="http://www.w3.org/2000/svg" xml:space="preserve" width="152.358mm" height="50mm" version="1.1" style="shape-rendering:geometricPrecision; text-rendering:geometricPrecision; image-rendering:optimizeQuality; fill-rule:evenodd; clip-rule:evenodd"
viewBox="0 0 13416.65 4403.01"
 xmlns:xlink="http://www.w3.org/1999/xlink"
 xmlns:xodm="http://www.corel.com/coreldraw/odm/2003">
 <defs>
  <style type="text/css">
   <![CDATA[
    .fil0 {fill:black}
   ]]>
  </style>
 </defs>
 <g id="Camada_x0020_1">
  <metadata id="CorelCorpID_0Corel-Layer"/>
  <g id="_2398862888896">
   <path class="fil0" d="M1659.88 2993.24c7.86,-35.51 31.26,-79.05 46.66,-113.63 28.31,-63.6 34.54,-94.16 57.6,-93.51 -7.91,36.01 -74,201.36 -95.79,217.52 -4.53,43.14 -132.14,305.79 -160,360.73 -29.54,58.29 -55.65,120.12 -84.71,178.96l-276.19 515.71c-28.26,49.84 -181.09,312.43 -188.32,343.99 28.58,-10.82 245.72,-225.16 298.01,-275.06 34.23,-32.67 70.24,-60.66 103.64,-92.67l334.38 -335.4c15.64,-16.95 99.85,-78.82 149.74,-140.92l645.18 -701.37c113.66,-143.89 229.13,-278.46 339.14,-425.94 248.51,-333.18 561.64,-826.64 713.3,-1214.74 31.59,-80.81 86.15,-201.15 104.67,-282.57 -50.14,0.18 -104.27,9.95 -153.98,17.37 -65.58,9.77 -268.53,13.7 -332.78,5.83l-103.49 -17.63c-34.41,-5.87 -19.16,4.92 -39.15,-12.88 176.19,-31.12 146.1,-30.3 298.31,-85.19 -8.5,-74.13 -249.48,-396.64 -305.93,-465.45 -120.03,-146.32 -152.37,-169.77 -279.7,-295.64 -131.74,-130.23 -95.76,-105.8 -135,94.61 -60.4,308.47 -126.93,581.51 -205.08,884.1 -44.6,172.67 -145.4,502.3 -205.19,667.4 -84.95,234.55 -195.23,563.82 -300.29,789.03 -22.47,48.18 -42.67,112.36 -67,156.61 -66.55,-124.71 -315.57,-799.67 -359.33,-934.14 -75.2,-231.1 -137.63,-433.24 -201.6,-670.6 -31.1,-115.39 -58.43,-228.89 -87.96,-345.23 -15.57,-61.33 -24.36,-119.34 -38.14,-179.2 -28.4,-123.34 -56.41,-228.22 -76.32,-356.68 -4.19,-27.03 -31.27,-169.84 -38.56,-185.16 -22.72,-6.57 -81.17,57.51 -101.59,75.9l-187.75 197.76c-29.62,35.74 -59.2,71 -89.59,106.39 -48.2,56.12 -296.45,403.42 -320.99,461.34 42.93,11.16 94.3,36.28 141.08,50.2 54.49,16.21 107.2,21.7 160.54,35.83 -20.66,13.37 -263.02,29.88 -305.69,30.02 -97.64,0.33 -211.86,-14.24 -312.01,-30.2 10.49,115.42 216.13,562.45 279.34,683.24 81.08,154.93 260.9,463.14 363.13,597.39 69.54,91.32 137.2,182.97 205.72,274.8 64.72,86.75 145.57,181.28 217.23,263.01 68.23,77.84 412.86,469.19 471.28,496.5l123.19 -250.42z"/>
   <path class="fil0" d="M1626.45 313.82c152.84,171.11 110.64,11.51 75.34,335.28 -6.91,63.42 -21.33,166.53 -35.6,227.06l-124.61 797.23c-14.74,122.44 -36.19,49.44 143.79,230.74 179.29,180.6 106.16,140.62 284.56,-7.15 30.87,-25.57 74.14,-81.63 141.47,-134.5 3.68,-44.65 -33.96,-292.2 -47.31,-338.96 -11.5,-40.29 -16.19,-121.45 -22.95,-167.68 -7.88,-53.83 -22.24,-109.43 -29.81,-164.41 -7.54,-54.82 -12.56,-113.21 -22.82,-167.21l-78 -507.25 108.77 -101.71c-2.48,-27.18 -69.36,-177.63 -85.67,-201.79l-221.79 -3.69c-15.24,30.54 -82.66,179.37 -85.36,204.04z"/>
  </g>
  <g id="_2398862890624">
   <path class="fil0" d="M6473.04 1054.19c55.46,-135.58 310.16,-176.29 438.11,-148.35 383.17,83.67 431.28,472.52 436.07,802.37 1.52,105.2 -27.21,457.45 -121.79,507.63 -21.24,-16.66 -731.54,-1105.2 -752.39,-1161.65zm-241.59 11.06c97.18,204.87 783.94,1154.99 829.42,1317.1 -102.84,110.41 -761.32,235.26 -771.52,-725.29l-423.23 -5.69c-51.06,4.9 -28.36,-0.7 -42.76,26.66 22.21,32.34 22.88,14.74 71.27,23.31 156.62,27.73 82.42,196.59 216.46,437.1 78.81,141.42 241.81,305.72 397.29,357.54 77.55,25.85 265.22,16.3 354.83,16.1 127.37,-0.28 208.09,14.29 321.92,-49.46 578.83,-324.16 587.6,-1113.29 138.42,-1486.52 -241.02,-200.26 -606.63,-225.05 -880.94,-81.11 -54.4,28.55 -189.75,118.23 -211.17,170.26z"/>
   <path class="fil0" d="M5585.36 890.68c-147.64,24.36 -284.07,-121.94 -520,-73.82 -157.55,32.12 -282.9,109.93 -355.62,257.59 -72.59,147.4 -39.91,332.14 70.9,452.29 102.97,111.66 233.92,172.85 361.24,252.85 127.87,80.34 255.56,122.97 358.34,245.45 115.98,138.23 57.04,315.21 -91.31,392.55 -208.83,108.85 -528.85,-9.93 -615.36,-229.64 -54.19,-137.66 -19.37,-220.98 -99.51,-204.64 -12.5,71.93 -18.4,530.99 5.95,571.82 57.25,19.5 37.13,-42.2 83.59,-88.8 98.55,-44.34 579.44,306.72 922.19,-124.7 104.25,-131.23 94.05,-327.94 17.07,-468.81 -64.69,-118.39 -223.22,-209.23 -340.89,-273.19 -171.03,-92.97 -492.69,-237.15 -503.88,-414.21 -5.47,-86.41 32.45,-171.3 99.53,-215.21 146.35,-95.77 327.29,-61.29 462.52,38.02 68.92,50.62 98.35,101.8 132.99,179.28 29.81,66.67 37.27,248.05 93.75,200.44 22.26,-18.77 18.36,-542.42 0.89,-577.91 -54.16,-11.87 -50.67,38.29 -82.39,80.65z"/>
   <path class="fil0" d="M9352.12 2077.7c-53.89,-24.69 -60.89,23.97 -155.6,132.8 -161.24,185.28 -425.92,242.53 -658.17,156.89 -327.35,-120.7 -418.51,-465.9 -392.05,-786.76 26.46,-320.98 121.67,-639.4 478.92,-706.76 159.32,-30.04 331.67,9.72 452.39,118.82 80.1,72.39 137.75,177.04 174.39,278.49 16.45,45.54 12.52,78.15 60.96,69.36 14.04,-41.38 -21.58,-505.88 -35.64,-566.83 -67.06,1.31 -62.3,58.7 -108.78,108.01 -84.03,6.26 -160.78,-48.42 -246.87,-74.78 -117.05,-35.85 -165.26,-34.98 -288.01,-31.81 -135.7,3.51 -360.62,85.28 -457.36,183.66 -26.68,27.14 -68.63,55.7 -85.59,75.11 -81.76,93.51 -133.24,193.63 -172.4,310.57 -193.35,577.32 139.22,1138.28 625.27,1166.16 191.64,10.99 354.79,10.6 522.36,-98.65 75.11,-48.97 292.43,-244.88 286.2,-334.29z"/>
   <path class="fil0" d="M10497.86 1688.4c43.54,21.64 59.43,-5.74 105.84,31.54 14.54,110.81 -104.33,329.45 -150.06,439.04 -137.21,328.83 -168.12,250.8 -277.19,306.33 -5.35,67.51 33.83,47.11 97.69,46.43 106.79,-1.14 357.96,6.66 429.64,-2.62l0.82 -35.62c-49.35,-45.51 -173.16,0.09 -187.85,-102.05 -9.43,-65.62 42.45,-162.52 66.1,-223.84 27.03,-70.09 56.86,-135.15 88.56,-203.08 26.83,-57.49 45.76,-167.57 98.54,-197.34 32.95,-15.14 380.38,-11.63 435.21,-4.04 16.2,7.73 261.24,538.15 243.94,637.33 -19.46,111.61 -173.99,22.97 -156.85,130.06 44.5,4.37 630.32,12.55 651.05,-9.91 36.11,-54.88 -48.85,-43.92 -87.96,-58.96 -34.76,-13.36 -71.24,-42.52 -93.57,-68.23 -114.61,-131.94 -609.47,-1487.67 -684.87,-1568.59l-41.63 3.72c-24.4,26.02 -85.1,183.58 -104.1,228.69 -38.28,90.83 -36.91,153.46 21.92,234.6l34.69 -53.38c19.94,20.22 187.68,388.99 175.77,433.31 -129.61,16.37 -473.51,-6.09 -618.6,-0.88 -49.14,1.77 -44.22,-0.19 -47.07,37.5z"/>
   <path class="fil0" d="M12513.03 2387.2c-65.71,-82.41 -41.07,-316.36 -41.11,-427.44 -0.05,-154.27 0.02,-308.56 0.18,-462.84 0.26,-242.82 -55.42,-538.95 117.16,-584.29 142.05,-37.33 166.76,12.63 166.31,-53.9 -38.51,-16.85 -736.62,-19.36 -771.27,3.82 11.22,53.47 42.5,25.56 98.91,33.81 146.55,21.42 139.25,123.34 141.22,248.38l0.11 1046.44c-0.85,65.2 10.27,175.53 -33.74,226.67 -60.13,69.87 -148.78,26.2 -199.68,64.28 -9.91,57.57 69.51,39.8 114.28,39.67 329.91,-1 900.31,14.69 1167.17,0.88 24.11,-28.2 158.72,-422.98 142.78,-472.35 -87.95,14.15 -67.49,242.56 -304.82,331.48 -92.19,34.55 -500.14,31.88 -597.49,5.39z"/>
   <path class="fil0" d="M10111.89 2472.9c-56.31,-20.8 -141.51,8.51 -199.72,-60.86 -34.71,-41.36 -24.78,-184.2 -25.25,-240.99 -2.4,-289.82 -7.6,-748.83 1.02,-1026.3 2.15,-69.07 -8.75,-171.2 51.09,-214.66 99.06,-71.92 166.64,4.41 184.63,-67.08 -43.71,-34.04 -288.85,-12.52 -362.66,-12.86 -72.41,-0.33 -306.33,-9.29 -359.48,4.55 -0.71,85.63 74.88,0.87 184.75,82.02 66.23,48.92 53.7,131.03 54.37,208.02l-0.01 1046.42c-0.6,357.83 -120.36,232.66 -238.11,286.21 -4.42,41.13 -5.51,15 5.49,37.6 34.77,13.95 673.25,13.8 707.09,0.21 11.09,-29.72 10.31,-19.32 -3.22,-42.3z"/>
   <path class="fil0" d="M8325.57 3256.51c-14.55,-66.99 -22.34,-249.33 25.58,-299.72 103.3,-8.15 175.22,73.34 158.9,177.36 -13.61,86.68 -107.18,152.17 -184.48,122.36zm253.24 -316.07c-88.07,-46.74 -455.46,-36.25 -487.38,-24.81 -5.48,59.17 23.64,26.01 77.22,62.95 9.29,70.77 11.81,497.61 -1.91,556.37 -51.37,37.59 -77.4,2.89 -86.05,66.71 50.52,13.75 291.07,12.68 345.21,2.1 -21.19,-83.17 -76.97,-1.89 -101.11,-107.05 -9.79,-42.68 -13.14,-143.97 7.43,-179.44 73.83,-32.92 136.82,142.69 174.96,197.99 61.87,89.68 186.74,121.88 260.36,106.13 1.3,-60.44 -18.29,-49.66 -62.35,-92.65 -54.35,-53.02 -156.78,-196.3 -162.13,-264.31 183.77,-92.01 135.59,-270.99 35.74,-323.97z"/>
   <path class="fil0" d="M10787.13 2952.4c287.46,-107.31 384.76,534.89 132.13,608.18 -303.97,88.2 -396.08,-509.66 -132.13,-608.18zm444.17 315.39c52.44,-456.48 -751.34,-519.98 -767.11,-20.47 -11.68,369.56 439.8,481.68 653.22,280.31 86.4,-81.52 100.53,-143.51 113.89,-259.84z"/>
   <path class="fil0" d="M9886.87 3625.19c17.97,-53.03 6.51,-329.67 6.98,-407.71 2.46,-401.94 94.26,-191.19 103.07,-294.35 -33.22,-19.9 -248.39,-21.35 -278.52,2.55 21.71,81.45 113.64,-42.59 117.45,160.54 1.46,77.96 6.99,192.73 0.11,267.25 -55.33,-3.77 -372.31,-403.12 -406.71,-428.31 -32.65,-23.9 -81.27,-15.12 -121.02,-15.02 -48.8,0.13 -89.2,-15.45 -107.79,25.39 49.86,45.57 107.05,13.67 115.58,111.26l-1.91 439.26c-14.89,104.1 -95.53,43.92 -103.04,110.95 40.22,23.14 242.95,20.88 285.3,0.08 -11.74,-55.96 -53.93,-19.99 -102.55,-71.93 -24.36,-91.27 -23.64,-332.44 -18.13,-433.06 46.26,23.17 196.7,230.65 249.1,282 55.09,53.98 189.8,256.67 262.09,251.09z"/>
   <path class="fil0" d="M7559.74 3076.61c13.61,-53.71 5.63,-125.05 -24.73,-166.48 -91.11,-2.84 -187.72,-1.12 -279.4,-0.38 -121.46,0.98 -225.19,-20.61 -226.16,31.23 43.26,35.82 52.93,-7.01 88.7,52.2 12.06,69.61 12.87,487.33 -7.97,543.57 -40.96,24.67 -81.66,17.05 -103.38,53.07 37.09,37.56 543.09,21.46 571.76,10.35 20.84,-54.54 31.96,-123.41 31.44,-182.94 -76.11,5.87 -51.65,84.76 -114.96,120.22 -36.16,20.25 -165.83,19.85 -197.69,2.96 -48.83,-37.72 -31.97,-191.72 -30.29,-257.77l158.91 6.94c42.69,41.18 16.28,73.13 79.76,63.83l-2.01 -213.51c-82.71,-4.86 -22.4,121.88 -230.07,80.78 -5.55,-14.49 -28.28,-234.64 18.82,-258.7 39.14,-9.71 136.33,-6.05 170.36,18.07 64.82,45.97 14.52,97.61 96.91,96.57z"/>
   <path class="fil0" d="M11747.54 3392.83c-14.43,54.32 -4.09,183.25 56.1,206.83 61.04,23.91 156.11,40.59 221.39,20.98 142.31,-42.76 244.08,-165.72 163.08,-314.98 -56.34,-103.83 -280.98,-141.75 -295.05,-239.08 -13.21,-91.37 60.14,-149.28 146.51,-115.05 62.8,24.89 73.5,124.89 126.19,137.23 32.55,-47.75 27.86,-170.37 -69.47,-186.15 -342.49,-55.52 -426.55,231.43 -248.71,361.81 54.99,40.32 113.13,60.13 168.92,102.11 149.09,112.18 -2.54,292.52 -151.35,161.72 -70.97,-62.38 -49.16,-148.2 -117.61,-135.41z"/>
   <path class="fil0" d="M5896.55 3099.96c88.1,8.82 -9.42,-158.12 240.64,-142.53l-1.21 559.31c-21.76,76.64 -93.33,6.57 -97.32,83.09 32.3,17.3 321.94,15.84 359.05,-1.27 -9.85,-73.21 -79.52,-2.31 -104.42,-82.57 -9.64,-31.05 -9.3,-520.29 2.24,-554.09 40.49,-14.2 123.59,-1.29 156.57,32.88 46.85,48.56 26.3,108.5 84.14,106.88 14.63,-53.9 10.26,-167.32 -15.14,-215.62 -46.93,0.85 -64.46,26.17 -150.89,25.57l-342.57 -0.57c-69.95,-0.63 -90.46,-33.77 -134.28,-20.02 -4.52,52.11 -17.31,168.16 3.2,208.93z"/>
  </g>
 </g>
</svg>
